<?xml version="1.0" encoding="utf-8"?>
<!-- Generator: Adobe Illustrator 16.0.0, SVG Export Plug-In . SVG Version: 6.00 Build 0)  -->
<!DOCTYPE svg PUBLIC "-//W3C//DTD SVG 1.0//EN" "http://www.w3.org/TR/2001/REC-SVG-20010904/DTD/svg10.dtd">
<svg version="1.0" id="Layer_1" xmlns="http://www.w3.org/2000/svg" xmlns:xlink="http://www.w3.org/1999/xlink" x="0px" y="0px"
	 width="100px" height="100px" viewBox="0 0 100 100" enable-background="new 0 0 100 100" xml:space="preserve">
<polygon fill="#FFB74D" points="48.333,49.343 56.716,44.551 49.997,40.713 41.667,45.476 "/>
<polygon fill="#263238" points="65,41.604 65,58.393 49.997,66.963 48.333,66.014 48.333,49.343 41.667,45.476 41.667,69.88 
	49.997,74.643 71.667,62.259 71.667,37.737 "/>
<polygon fill="#FFB74D" points="65,41.604 49.997,33.034 35,41.604 28.333,37.737 49.997,25.358 71.667,37.737 "/>
<polygon fill="#263238" points="35,41.604 35,73.75 49.997,82.32 78.334,66.13 78.334,33.867 85,30 85,70 49.997,90 28.333,77.617 
	28.333,37.737 "/>
<polygon fill="#FFB74D" points="21.667,33.867 49.997,17.679 78.334,33.867 85,30 49.997,10 15,30 "/>
<polygon fill="#263238" points="15,30 15,70 21.667,73.809 21.667,33.867 "/>
</svg>
