<?xml version="1.0" encoding="UTF-8"?>
<!DOCTYPE svg PUBLIC "-//W3C//DTD SVG 1.1//EN" "http://www.w3.org/Graphics/SVG/1.1/DTD/svg11.dtd">
<!-- Creator: CorelDRAW -->
<svg xmlns="http://www.w3.org/2000/svg" xml:space="preserve" width="2048px" height="2048px" style="shape-rendering:geometricPrecision; text-rendering:geometricPrecision; image-rendering:optimizeQuality; fill-rule:evenodd; clip-rule:evenodd"
viewBox="0 0 2048 2048"
 xmlns:xlink="http://www.w3.org/1999/xlink">
 <defs>
  <style type="text/css">
   <![CDATA[
    .fil0 {fill:#42A5F5}
    .fil2 {fill:#FFFFFE}
    .fil1 {fill:#FFFFFE;fill-rule:nonzero}
   ]]>
  </style>
 </defs>
 <g id="Layer_x0020_1">
  <metadata id="CorelCorpID_0Corel-Layer"/>
  <circle class="fil0" cx="1024" cy="1024" r="1024"/>
  <g id="_294344376">
   <path id="_294345624" class="fil1" d="M1017.74 1129.56l297.275 -263.224 65.8323 73.2473 -298.98 264.731 0.0437008 0.0484252c-1.65236,1.46221 -3.50551,2.55 -5.45906,3.26929l-102.755 49.2 0.0307087 0.0637796c-8.58308,4.10906 -18.8728,0.483071 -22.9819,-8.10001 -2.85827,-5.96693 -1.97244,-12.7595 1.71496,-17.726l60.9626 -96.7879 -0.0413386 -0.0295276c1.18347,-1.87914 2.67047,-3.45 4.35709,-4.69252zm314.451 -278.432l4.8189 -4.26615 175.85 -155.707 -0.0425197 -0.0472441c7.12323,-6.30827 18.0154,-5.64685 24.3236,1.47638 0.333071,0.376772 0.646063,0.764174 0.940158,1.15984l41.5359 46.9099 0.0484252 -0.0425197c6.30827,7.12323 5.64685,18.0142 -1.47756,24.3225 -0.375591,0.333071 -0.764174,0.646063 -1.15984,0.941339l-179.004 158.499 -65.8323 -73.2461z"/>
   <path id="_294344448" class="fil2" d="M1256.12 887.799l-769.149 0c-12.6886,0 -22.976,10.2874 -22.976,22.9748l0 427.478c0,12.6886 10.2874,22.9748 22.976,22.9748l1056.82 0c12.6886,0 22.9748,-10.2862 22.9748,-22.9748l0 -427.478c0,-12.6874 -10.2862,-22.9748 -22.9748,-22.9748l-69.8067 0 -60.5764 53.6386 -53.1957 47.1012 100.46 0 0 34.4622 -139.38 0 -119.433 105.751 235.062 0 0 34.4611 -273.981 0 -48.5516 42.9898 0.0425197 0.0472441 -17.289 15.3095c-3.34607,2.96339 -6.7878,4.88622 -10.7681,6.79134l-82.0134 39.2693 0.0307087 0.0637796 -20.7414 9.93072c-20.0103,9.58111 -44.0433,1.11024 -53.6245,-18.8988 -6.23977,-13.0311 -4.58859,-27.8481 2.99646,-39.8929l35.0268 -55.6099 -401.255 0 0 -34.4611 422.9 0c6.84922,-10.8744 11.6209,-14.4957 20.8016,-23.465l245.623 -217.488zm-689.326 161.841l371.404 0 0 34.4611 -371.404 0 0 -34.4611zm717.797 200.133l176.082 0 0 34.4611 -176.082 0 0 -34.4611zm-717.795 -261.234l176.08 0 0 34.4622 -176.08 0 0 -34.4622zm0 261.234l176.08 0 0 34.4611 -176.08 0 0 -34.4611z"/>
  </g>
 </g>
</svg>
